<svg xmlns="http://www.w3.org/2000/svg" xmlns:xlink="http://www.w3.org/1999/xlink" width="61.7" height="18.574" viewBox="0 0 61.7 18.574">
  <defs>
    <clipPath id="clip-path">
      <rect id="Retângulo_197" data-name="Retângulo 197" width="61.7" height="18.574" fill="#aaaebb"/>
    </clipPath>
  </defs>
  <g id="Grupo_250" data-name="Grupo 250" transform="translate(0 0)">
    <path id="Caminho_173" data-name="Caminho 173" d="M5.251,2.956,6.32,7.107h-2.2ZM3.742,0,.361,11.834H2.877l.676-2.481H6.87L7.5,11.834h2.532L6.7,0Z" transform="translate(-0.284 0)" fill="#aaaebb"/>
    <rect id="Retângulo_181" data-name="Retângulo 181" width="2.337" height="11.83" transform="translate(10.479 0)" fill="#aaaebb"/>
    <g id="Grupo_251" data-name="Grupo 251" transform="translate(0 0)">
      <g id="Grupo_250-2" data-name="Grupo 250" clip-path="url(#clip-path)">
        <path id="Caminho_174" data-name="Caminho 174" d="M174.625,23.791a4.349,4.349,0,0,1-1.761-.371,3.243,3.243,0,0,1-.827-.548,6.111,6.111,0,0,1-.793-.9l1.588-1.174a2.95,2.95,0,0,0,.339.448,3.283,3.283,0,0,0,.424.393,2,2,0,0,0,.5.287,1.505,1.505,0,0,0,.565.108,1.666,1.666,0,0,0,.354-.038,1.121,1.121,0,0,0,.33-.123.734.734,0,0,0,.244-.224.6.6,0,0,0,.094-.34.536.536,0,0,0-.313-.494,4.72,4.72,0,0,0-.527-.247c-.225-.092-.5-.2-.826-.324a6.83,6.83,0,0,1-1.651-.866,2.067,2.067,0,0,1-.77-1.777,2.337,2.337,0,0,1,.235-1.066,2.4,2.4,0,0,1,.63-.78,2.73,2.73,0,0,1,.92-.479,3.7,3.7,0,0,1,1.093-.162,4.1,4.1,0,0,1,1.729.333,4.4,4.4,0,0,1,1.4,1.074L176.1,17.8a4.825,4.825,0,0,0-.668-.626,1.338,1.338,0,0,0-.841-.3,1.726,1.726,0,0,0-.629.116.48.48,0,0,0-.3.5.609.609,0,0,0,.379.509,4.666,4.666,0,0,0,.817.355c.284.093.563.188.842.287a5.074,5.074,0,0,1,.8.363,2.625,2.625,0,0,1,.685.556,2.714,2.714,0,0,1,.582,1.777,2.168,2.168,0,0,1-.9,1.792,3.589,3.589,0,0,1-2.248.664" transform="translate(-134.926 -11.904)" fill="#aaaebb"/>
        <path id="Caminho_175" data-name="Caminho 175" d="M207.208,23.708a3.365,3.365,0,0,1-2.725-1.2,4.676,4.676,0,0,1-1.01-3.135,4.679,4.679,0,0,1,1.01-3.135,3.366,3.366,0,0,1,2.725-1.2,3.418,3.418,0,0,1,2.741,1.2,4.679,4.679,0,0,1,1.008,3.135,4.677,4.677,0,0,1-1.008,3.135,3.417,3.417,0,0,1-2.741,1.2m0-6.764a1.106,1.106,0,0,0-.767.251,1.634,1.634,0,0,0-.43.618,2.72,2.72,0,0,0-.188.786c-.026.28-.038.537-.038.769s.013.491.038.771a2.723,2.723,0,0,0,.188.786,1.634,1.634,0,0,0,.43.617,1.11,1.11,0,0,0,.767.251,1.155,1.155,0,0,0,.773-.244,1.54,1.54,0,0,0,.439-.61,2.82,2.82,0,0,0,.188-.793c.025-.285.038-.545.038-.778a3.778,3.778,0,0,0-.359-1.845,1.143,1.143,0,0,0-1.079-.579" transform="translate(-160.32 -11.841)" fill="#aaaebb"/>
        <path id="Caminho_176" data-name="Caminho 176" d="M68.651,14.975v5.98a2.532,2.532,0,0,1-.719.523,1.93,1.93,0,0,1-.875.211.7.7,0,0,1-.656-.266,1.75,1.75,0,0,1-.2-.983V14.975H63.887v5.789a4.115,4.115,0,0,0,.149,1.136,2.415,2.415,0,0,0,.473.91,2.246,2.246,0,0,0,.8.6,2.739,2.739,0,0,0,1.142.219,3,3,0,0,0,1.261-.259,8.479,8.479,0,0,0,.935-.518v.771h2.312V14.975Z" transform="translate(-50.338 -11.799)" fill="#aaaebb"/>
        <path id="Caminho_177" data-name="Caminho 177" d="M112.011,16.515a2.409,2.409,0,0,0-.409-.81,2,2,0,0,0-1.645-.778,4.117,4.117,0,0,0-1.512.26,3.922,3.922,0,0,0-1.26.825,2.171,2.171,0,0,0-.9-.818,2.708,2.708,0,0,0-1.2-.267,3.576,3.576,0,0,0-1.2.189,3.3,3.3,0,0,0-.882.506v-.668h-2.291v8.654h2.311V17.659c.073-.063.167-.141.281-.235a3.035,3.035,0,0,1,.367-.258,3.076,3.076,0,0,1,.4-.2.961.961,0,0,1,.375-.087.777.777,0,0,1,.632.235,1,1,0,0,1,.2.657v5.838h2.311V17.659q.11-.094.282-.235a2.746,2.746,0,0,1,.374-.258,3.933,3.933,0,0,1,.4-.2.878.878,0,0,1,.351-.087.8.8,0,0,1,.64.235.974.974,0,0,1,.2.657v5.838h2.31V17.475a3.379,3.379,0,0,0-.133-.959" transform="translate(-79.354 -11.761)" fill="#aaaebb"/>
        <rect id="Retângulo_182" data-name="Retângulo 182" width="2.263" height="1.961" transform="translate(33.523 0.02)" fill="#aaaebb"/>
        <path id="Caminho_178" data-name="Caminho 178" d="M158.063,14.975v8.68h2.312v-8.68Z" transform="translate(-124.54 -11.799)" fill="#aaaebb"/>
        <path id="Caminho_179" data-name="Caminho 179" d="M243.669,3.278V2.684c.01-.277.1-.454.276-.516a2.124,2.124,0,0,1,.691-.1h.645V.148h-1.446a2.639,2.639,0,0,0-1.922.581,2.591,2.591,0,0,0-.579,1.882v.667h-1.116V5.352h1.119v6.607h2.332V5.352h1.644V3.278Z" transform="translate(-189.272 -0.117)" fill="#aaaebb"/>
        <path id="Caminho_180" data-name="Caminho 180" d="M270.374,3.278V.148h-2.312v3.13h-1.154V5.352h.023v.015h1.131V10l.031.344s.084.871.555,1.156a2.412,2.412,0,0,0,1.584.485c.19,0,.362,0,.52-.007s.293-.013.409-.023.236-.024.361-.039a4.6,4.6,0,0,0,.456-.085V9.9l-.566.139a2.184,2.184,0,0,1-.519.062.943.943,0,0,1-.376-.062c-.095-.041-.142-.02-.142-.323V5.367h1.6V5.352H272V3.278Z" transform="translate(-210.301 -0.117)" fill="#aaaebb"/>
        <rect id="Retângulo_183" data-name="Retângulo 183" width="2.325" height="4.275" transform="translate(33.509 14.299)" fill="#aaaebb"/>
        <rect id="Retângulo_184" data-name="Retângulo 184" width="2.191" height="4.275" transform="translate(30.932 14.299)" fill="#aaaebb"/>
        <rect id="Retângulo_185" data-name="Retângulo 185" width="2.057" height="4.275" transform="translate(28.354 14.299)" fill="#aaaebb"/>
        <rect id="Retângulo_186" data-name="Retângulo 186" width="1.923" height="4.275" transform="translate(25.776 14.299)" fill="#aaaebb"/>
        <rect id="Retângulo_187" data-name="Retângulo 187" width="1.789" height="4.275" transform="translate(23.199 14.299)" fill="#aaaebb"/>
        <rect id="Retângulo_188" data-name="Retângulo 188" width="1.654" height="4.275" transform="translate(20.621 14.299)" fill="#aaaebb"/>
        <rect id="Retângulo_189" data-name="Retângulo 189" width="1.52" height="4.275" transform="translate(18.043 14.299)" fill="#aaaebb"/>
        <rect id="Retângulo_190" data-name="Retângulo 190" width="1.386" height="4.275" transform="translate(15.466 14.299)" fill="#aaaebb"/>
        <rect id="Retângulo_191" data-name="Retângulo 191" width="1.252" height="4.275" transform="translate(12.888 14.299)" fill="#aaaebb"/>
        <rect id="Retângulo_192" data-name="Retângulo 192" width="1.118" height="4.275" transform="translate(10.311 14.299)" fill="#aaaebb"/>
        <rect id="Retângulo_193" data-name="Retângulo 193" width="0.984" height="4.275" transform="translate(7.733 14.299)" fill="#aaaebb"/>
        <rect id="Retângulo_194" data-name="Retângulo 194" width="0.85" height="4.275" transform="translate(5.155 14.299)" fill="#aaaebb"/>
        <rect id="Retângulo_195" data-name="Retângulo 195" width="0.715" height="4.275" transform="translate(2.578 14.299)" fill="#aaaebb"/>
        <rect id="Retângulo_196" data-name="Retângulo 196" width="0.581" height="4.275" transform="translate(0 14.299)" fill="#aaaebb"/>
        <path id="Caminho_181" data-name="Caminho 181" d="M173.561,73.882a.548.548,0,0,0,.114.313.77.77,0,0,0,.571.165.874.874,0,0,0,.389-.073.232.232,0,0,0,.144-.217.235.235,0,0,0-.116-.212,4.764,4.764,0,0,0-.864-.249,1.8,1.8,0,0,1-.759-.333.722.722,0,0,1-.22-.568.985.985,0,0,1,.344-.752,1.384,1.384,0,0,1,.969-.315,1.779,1.779,0,0,1,.966.236,1.011,1.011,0,0,1,.428.816H174.7a.486.486,0,0,0-.09-.252.568.568,0,0,0-.465-.168.67.67,0,0,0-.385.084.242.242,0,0,0-.115.2.215.215,0,0,0,.122.206,5.265,5.265,0,0,0,.863.229,1.581,1.581,0,0,1,.74.351.8.8,0,0,1,.243.594.96.96,0,0,1-.35.767,2.1,2.1,0,0,1-2.185-.017,1.022,1.022,0,0,1-.356-.8Z" transform="translate(-136.091 -56.447)" fill="#aaaebb"/>
        <path id="Caminho_182" data-name="Caminho 182" d="M190.116,68.234h-.838v-.759h.838Zm-.838.375h.838V71.72h-.838Z" transform="translate(-149.135 -53.165)" fill="#aaaebb"/>
        <path id="Caminho_183" data-name="Caminho 183" d="M196.91,73.882a.548.548,0,0,0,.114.313.77.77,0,0,0,.571.165.874.874,0,0,0,.389-.073.232.232,0,0,0,.144-.217.235.235,0,0,0-.116-.212,4.763,4.763,0,0,0-.864-.249,1.8,1.8,0,0,1-.759-.333.722.722,0,0,1-.22-.568.985.985,0,0,1,.344-.752,1.384,1.384,0,0,1,.969-.315,1.779,1.779,0,0,1,.966.236,1.011,1.011,0,0,1,.428.816h-.826a.486.486,0,0,0-.09-.252.568.568,0,0,0-.465-.168.67.67,0,0,0-.385.084.242.242,0,0,0-.115.2.215.215,0,0,0,.122.206,5.264,5.264,0,0,0,.863.229,1.581,1.581,0,0,1,.74.351.8.8,0,0,1,.243.594.96.96,0,0,1-.35.767,2.1,2.1,0,0,1-2.185-.017,1.022,1.022,0,0,1-.356-.8Z" transform="translate(-154.488 -56.447)" fill="#aaaebb"/>
        <path id="Caminho_184" data-name="Caminho 184" d="M211.041,68.962v-.617h.44V67.42h.818v.925h.513v.617H212.3v1.752a.41.41,0,0,0,.049.254.523.523,0,0,0,.3.05h.08l.083,0v.648l-.391.015a1.016,1.016,0,0,1-.8-.213.655.655,0,0,1-.139-.459V68.962Z" transform="translate(-166.283 -53.121)" fill="#aaaebb"/>
        <path id="Caminho_185" data-name="Caminho 185" d="M223.028,71.816a1.288,1.288,0,0,1,.546.467,1.558,1.558,0,0,1,.252.653,4.067,4.067,0,0,1,.027.627h-2.3a.757.757,0,0,0,.33.667.839.839,0,0,0,.456.119.642.642,0,0,0,.629-.362h.844a1.031,1.031,0,0,1-.306.571,1.535,1.535,0,0,1-1.189.461,1.722,1.722,0,0,1-1.113-.389,1.532,1.532,0,0,1-.482-1.265,1.711,1.711,0,0,1,.435-1.259,1.523,1.523,0,0,1,1.13-.438,1.8,1.8,0,0,1,.743.148m-1.236.714a.858.858,0,0,0-.22.489H223a.691.691,0,0,0-.22-.5.724.724,0,0,0-.49-.17.655.655,0,0,0-.493.18" transform="translate(-173.908 -56.468)" fill="#aaaebb"/>
        <path id="Caminho_186" data-name="Caminho 186" d="M241.354,71.82a.926.926,0,0,1,.368.294.953.953,0,0,1,.18.419,2.987,2.987,0,0,1,.029.482l-.006,2.057h-.847V72.994a.7.7,0,0,0-.058-.305.41.41,0,0,0-.406-.228.474.474,0,0,0-.473.294.951.951,0,0,0-.067.374v1.943h-.832V73.128a1.119,1.119,0,0,0-.058-.422.4.4,0,0,0-.409-.237.483.483,0,0,0-.475.237.935.935,0,0,0-.067.4v1.964H237.4V71.814h.8v.476a1.362,1.362,0,0,1,.29-.362A1.117,1.117,0,0,1,239.7,71.9a.96.96,0,0,1,.273.392,1.07,1.07,0,0,1,.4-.422,1.2,1.2,0,0,1,.568-.135,1.072,1.072,0,0,1,.412.084" transform="translate(-187.048 -56.522)" fill="#aaaebb"/>
        <path id="Caminho_187" data-name="Caminho 187" d="M262.812,73.023a1.3,1.3,0,0,0,.33-.073.249.249,0,0,0,.178-.235.277.277,0,0,0-.137-.268.861.861,0,0,0-.4-.074.527.527,0,0,0-.42.145.6.6,0,0,0-.117.29h-.8a1.21,1.21,0,0,1,.233-.681,1.358,1.358,0,0,1,1.13-.417,2.015,2.015,0,0,1,.926.206.789.789,0,0,1,.4.777v1.45c0,.1,0,.222.006.365a.458.458,0,0,0,.049.22.3.3,0,0,0,.122.1v.122h-.9a.9.9,0,0,1-.052-.18c-.01-.056-.017-.12-.023-.191a1.713,1.713,0,0,1-.4.316,1.2,1.2,0,0,1-.607.154,1.047,1.047,0,0,1-.713-.245.872.872,0,0,1-.281-.694.9.9,0,0,1,.453-.844,2.017,2.017,0,0,1,.73-.2Zm.505.386a.907.907,0,0,1-.16.08,1.35,1.35,0,0,1-.222.056l-.188.035a1.228,1.228,0,0,0-.38.113.377.377,0,0,0-.2.351.366.366,0,0,0,.119.306.453.453,0,0,0,.29.094.864.864,0,0,0,.5-.157.663.663,0,0,0,.237-.571Z" transform="translate(-205.919 -56.501)" fill="#aaaebb"/>
        <path id="Caminho_188" data-name="Caminho 188" d="M277.837,73.882a.548.548,0,0,0,.114.313.77.77,0,0,0,.571.165.874.874,0,0,0,.389-.073.232.232,0,0,0,.144-.217.235.235,0,0,0-.116-.212,4.762,4.762,0,0,0-.864-.249,1.8,1.8,0,0,1-.759-.333.723.723,0,0,1-.22-.568.985.985,0,0,1,.344-.752,1.384,1.384,0,0,1,.969-.315,1.779,1.779,0,0,1,.966.236,1.011,1.011,0,0,1,.428.816h-.826a.486.486,0,0,0-.09-.252.567.567,0,0,0-.465-.168.67.67,0,0,0-.385.084.242.242,0,0,0-.115.2.215.215,0,0,0,.122.206,5.265,5.265,0,0,0,.863.229,1.581,1.581,0,0,1,.74.351.8.8,0,0,1,.243.594.96.96,0,0,1-.35.767,2.1,2.1,0,0,1-2.184-.017,1.022,1.022,0,0,1-.356-.8Z" transform="translate(-218.252 -56.447)" fill="#aaaebb"/>
      </g>
    </g>
  </g>
</svg>
