<svg xmlns="http://www.w3.org/2000/svg" xmlns:xlink="http://www.w3.org/1999/xlink" width="15" height="15" viewBox="0 0 15 15">
  <defs>
    <clipPath id="clip-path">
      <rect id="Retângulo_18" data-name="Retângulo 18" width="15" height="15" fill="#aaaebb"/>
    </clipPath>
  </defs>
  <g id="icon-instagram" clip-path="url(#clip-path)">
    <path id="Caminho_24" data-name="Caminho 24" d="M9.255,3.92H5.744A1.816,1.816,0,0,0,3.93,5.734V9.245a1.816,1.816,0,0,0,1.814,1.814H9.255A1.816,1.816,0,0,0,11.07,9.245V5.734A1.817,1.817,0,0,0,9.255,3.92M7.536,9.655A2.165,2.165,0,1,1,9.7,7.49,2.168,2.168,0,0,1,7.536,9.655M9.828,5.694a.516.516,0,1,1,.516-.516.516.516,0,0,1-.516.516" fill="#aaaebb"/>
    <path id="Caminho_25" data-name="Caminho 25" d="M7.536,6.1A1.387,1.387,0,1,0,8.923,7.489,1.388,1.388,0,0,0,7.536,6.1" fill="#aaaebb"/>
    <path id="Caminho_26" data-name="Caminho 26" d="M7.5,0A7.5,7.5,0,1,0,15,7.5,7.5,7.5,0,0,0,7.5,0m4.4,9.245a2.644,2.644,0,0,1-2.641,2.641H5.745A2.645,2.645,0,0,1,3.1,9.245V5.734A2.644,2.644,0,0,1,5.745,3.093H9.256A2.644,2.644,0,0,1,11.9,5.734Z" fill="#aaaebb"/>
  </g>
</svg>
