<svg xmlns="http://www.w3.org/2000/svg" xmlns:xlink="http://www.w3.org/1999/xlink" width="100.787" height="36.957" viewBox="0 0 100.787 36.957">
  <defs>
    <clipPath id="clip-path">
      <rect id="Retângulo_159" data-name="Retângulo 159" width="100.787" height="36.957" transform="translate(0 0)" fill="none"/>
    </clipPath>
  </defs>
  <g id="Grupo_246" data-name="Grupo 246" transform="translate(0 0)">
    <g id="Grupo_232" data-name="Grupo 232" transform="translate(0 0)" clip-path="url(#clip-path)">
      <path id="Caminho_142" data-name="Caminho 142" d="M38.131,4.213A15.7,15.7,0,0,0,28.842.093,15.737,15.737,0,0,0,18.133,2.745a19.81,19.81,0,0,0-3.155,2.711c-.258.345-1.209,1.462-1.628,2.157s-.747,1.3-.747,1.3,4.26-7.3,14.29-5.5a13.841,13.841,0,0,1,11.2,17.226,11.921,11.921,0,0,1-11.408,8.4c-4.335,0-8.484-2.108-10.2-5.746a8.853,8.853,0,0,1-.9-4.04c-.016-.55.077-.871.052-.947a4.732,4.732,0,0,0-.283,1.277c-.023.236-.038.381-.059.674-.011.151-.018.27-.034.533a10.362,10.362,0,0,0,.074,1.437c.5,3.552,3.3,10.338,11.8,10.517A16.538,16.538,0,0,0,42.445,22.255a16.824,16.824,0,0,0,1.1-6.178A15.8,15.8,0,0,0,38.131,4.213" transform="translate(-8.234 0)" fill="#277f9f"/>
      <path id="Caminho_143" data-name="Caminho 143" d="M5.415,40.685A15.694,15.694,0,0,0,14.7,44.8a15.732,15.732,0,0,0,10.71-2.651,19.866,19.866,0,0,0,3.153-2.711c.26-.345,1.211-1.462,1.628-2.157s.748-1.3.748-1.3-4.26,7.3-14.29,5.5a13.841,13.841,0,0,1-11.2-17.225,11.921,11.921,0,0,1,11.408-8.4c4.335,0,8.484,2.108,10.2,5.746a8.848,8.848,0,0,1,.9,4.04c.016.55-.076.871-.052.947a4.667,4.667,0,0,0,.282-1.277c.025-.236.038-.382.059-.674.011-.151.019-.271.035-.534a10.191,10.191,0,0,0-.076-1.437c-.5-3.552-3.3-10.338-11.8-10.517A16.535,16.535,0,0,0,1.1,22.643,16.823,16.823,0,0,0,0,28.821,15.8,15.8,0,0,0,5.415,40.685" transform="translate(0 -7.941)" fill="#277f9f"/>
      <path id="Caminho_144" data-name="Caminho 144" d="M43.066,35.85a8.885,8.885,0,1,1-8.886-8.885,8.886,8.886,0,0,1,8.886,8.885" transform="translate(-16.525 -17.615)" fill="#1d2b44"/>
      <path id="Caminho_145" data-name="Caminho 145" d="M127.736,92.08h1l.477,2.36h.009l.482-2.36h1v3.343h-.618V92.755h-.01l-.595,2.669h-.524l-.595-2.669h-.009v2.669h-.618Z" transform="translate(-83.446 -60.153)" fill="#455d79"/>
      <path id="Caminho_146" data-name="Caminho 146" d="M137.514,90.44h.674v3.343h-.674Zm.258-.871h.646l-.459.674h-.44Z" transform="translate(-89.834 -58.513)" fill="#455d79"/>
      <path id="Caminho_147" data-name="Caminho 147" d="M140.727,92.08h1.1a1.205,1.205,0,0,1,.567.115.82.82,0,0,1,.335.328,1.455,1.455,0,0,1,.162.513,4.835,4.835,0,0,1,.042.669,4.759,4.759,0,0,1-.054.768,1.47,1.47,0,0,1-.185.534.809.809,0,0,1-.351.313,1.311,1.311,0,0,1-.557.1h-1.063Zm.674,2.847h.3a.577.577,0,0,0,.283-.061.412.412,0,0,0,.173-.2,1.174,1.174,0,0,0,.084-.37q.021-.229.021-.572,0-.285-.019-.5a1.255,1.255,0,0,0-.077-.358.443.443,0,0,0-.173-.218.57.57,0,0,0-.307-.072H141.4Z" transform="translate(-91.933 -60.153)" fill="#455d79"/>
      <rect id="Retângulo_156" data-name="Retângulo 156" width="0.674" height="3.343" transform="translate(51.388 31.927)" fill="#455d79"/>
      <path id="Caminho_148" data-name="Caminho 148" d="M151.538,92.08h.834l.885,3.344h-.7l-.155-.707h-.889l-.155.707h-.7Zm.089,2.084h.656l-.323-1.5h-.009Z" transform="translate(-98.417 -60.153)" fill="#455d79"/>
      <path id="Caminho_149" data-name="Caminho 149" d="M161.335,93.628a6.317,6.317,0,0,1,.035-.7,1.539,1.539,0,0,1,.155-.551.864.864,0,0,1,.344-.358,1.482,1.482,0,0,1,1.208,0,.867.867,0,0,1,.344.358,1.553,1.553,0,0,1,.155.551,7.015,7.015,0,0,1,0,1.4,1.551,1.551,0,0,1-.155.55.863.863,0,0,1-.344.358,1.479,1.479,0,0,1-1.208,0,.86.86,0,0,1-.344-.358,1.537,1.537,0,0,1-.155-.55,6.335,6.335,0,0,1-.035-.7m.674,0q0,.337.016.574a1.6,1.6,0,0,0,.066.383.425.425,0,0,0,.14.216.466.466,0,0,0,.482,0,.429.429,0,0,0,.14-.216,1.587,1.587,0,0,0,.066-.383q.016-.237.016-.574t-.016-.571a1.616,1.616,0,0,0-.066-.383.428.428,0,0,0-.14-.218.462.462,0,0,0-.482,0,.424.424,0,0,0-.14.218,1.631,1.631,0,0,0-.066.383q-.016.234-.016.571" transform="translate(-105.396 -60.03)" fill="#455d79"/>
      <path id="Caminho_150" data-name="Caminho 150" d="M168.776,92.08h1.868v.553H169.45v.787h1.124v.552H169.45v1.452h-.674Z" transform="translate(-110.257 -60.153)" fill="#455d79"/>
      <rect id="Retângulo_157" data-name="Retângulo 157" width="0.674" height="3.343" transform="translate(60.627 31.927)" fill="#455d79"/>
      <path id="Caminho_151" data-name="Caminho 151" d="M179.267,93.085a1.215,1.215,0,0,0-.086-.531.324.324,0,0,0-.316-.166.315.315,0,0,0-.208.068.445.445,0,0,0-.129.22,1.852,1.852,0,0,0-.066.4q-.019.245-.019.6a6.024,6.024,0,0,0,.025.614,1.381,1.381,0,0,0,.08.363.33.33,0,0,0,.136.173.387.387,0,0,0,.189.044.452.452,0,0,0,.166-.03.28.28,0,0,0,.134-.122.8.8,0,0,0,.089-.258,2.344,2.344,0,0,0,.033-.438h.674a3.061,3.061,0,0,1-.042.515,1.2,1.2,0,0,1-.157.428.806.806,0,0,1-.324.293,1.176,1.176,0,0,1-.541.108,1.214,1.214,0,0,1-.6-.129.863.863,0,0,1-.344-.358,1.55,1.55,0,0,1-.154-.55,6.877,6.877,0,0,1,0-1.4,1.55,1.55,0,0,1,.154-.551.865.865,0,0,1,.344-.358,1.214,1.214,0,0,1,.6-.129,1.16,1.16,0,0,1,.569.117.794.794,0,0,1,.311.3,1.026,1.026,0,0,1,.129.388,3.233,3.233,0,0,1,.026.391Z" transform="translate(-116.131 -60.03)" fill="#455d79"/>
      <rect id="Retângulo_158" data-name="Retângulo 158" width="0.674" height="3.343" transform="translate(64.162 31.927)" fill="#455d79"/>
      <path id="Caminho_152" data-name="Caminho 152" d="M188.378,92.08h.834l.884,3.344h-.7l-.155-.707h-.889l-.155.707h-.7Zm.089,2.084h.656l-.323-1.5h-.009Z" transform="translate(-122.484 -60.153)" fill="#455d79"/>
      <path id="Caminho_153" data-name="Caminho 153" d="M195.407,95.424V92.081h.674v2.79h1.194v.553Z" transform="translate(-127.654 -60.154)" fill="#455d79"/>
      <path id="Caminho_154" data-name="Caminho 154" d="M204.456,92.08h1.1a1.205,1.205,0,0,1,.567.115.821.821,0,0,1,.335.328,1.455,1.455,0,0,1,.162.513,4.828,4.828,0,0,1,.042.669,4.721,4.721,0,0,1-.054.768,1.47,1.47,0,0,1-.185.534.809.809,0,0,1-.351.313,1.311,1.311,0,0,1-.557.1h-1.063Zm.674,2.847h.3a.577.577,0,0,0,.283-.061.412.412,0,0,0,.173-.2,1.183,1.183,0,0,0,.085-.37c.013-.153.021-.344.021-.572q0-.285-.019-.5a1.257,1.257,0,0,0-.077-.358.443.443,0,0,0-.173-.218.57.57,0,0,0-.307-.072h-.285Z" transform="translate(-133.565 -60.153)" fill="#455d79"/>
      <path id="Caminho_155" data-name="Caminho 155" d="M211.638,93.628a6.317,6.317,0,0,1,.036-.7,1.56,1.56,0,0,1,.154-.551.867.867,0,0,1,.344-.358,1.482,1.482,0,0,1,1.208,0,.87.87,0,0,1,.344.358,1.554,1.554,0,0,1,.155.551,7.015,7.015,0,0,1,0,1.4,1.552,1.552,0,0,1-.155.55.866.866,0,0,1-.344.358,1.479,1.479,0,0,1-1.208,0,.863.863,0,0,1-.344-.358,1.559,1.559,0,0,1-.154-.55,6.334,6.334,0,0,1-.036-.7m.675,0q0,.337.016.574a1.568,1.568,0,0,0,.066.383.427.427,0,0,0,.14.216.466.466,0,0,0,.482,0,.43.43,0,0,0,.141-.216,1.57,1.57,0,0,0,.065-.383q.017-.237.017-.574t-.017-.571a1.6,1.6,0,0,0-.065-.383.429.429,0,0,0-.141-.218.462.462,0,0,0-.482,0,.426.426,0,0,0-.14.218,1.6,1.6,0,0,0-.066.383q-.017.234-.016.571" transform="translate(-138.257 -60.03)" fill="#455d79"/>
      <path id="Caminho_156" data-name="Caminho 156" d="M222.051,92.08h1.868v.553h-1.194v.787h1.124v.552h-1.124v1.452h-.674Z" transform="translate(-145.06 -60.153)" fill="#455d79"/>
      <path id="Caminho_157" data-name="Caminho 157" d="M227.83,93.628a6.3,6.3,0,0,1,.036-.7,1.554,1.554,0,0,1,.154-.551.87.87,0,0,1,.344-.358,1.482,1.482,0,0,1,1.208,0,.87.87,0,0,1,.344.358,1.56,1.56,0,0,1,.154.551,7.012,7.012,0,0,1,0,1.4,1.559,1.559,0,0,1-.154.55.866.866,0,0,1-.344.358,1.479,1.479,0,0,1-1.208,0,.866.866,0,0,1-.344-.358,1.552,1.552,0,0,1-.154-.55,6.319,6.319,0,0,1-.036-.7m.674,0q0,.337.016.574a1.6,1.6,0,0,0,.066.383.423.423,0,0,0,.141.216.465.465,0,0,0,.482,0,.43.43,0,0,0,.141-.216,1.606,1.606,0,0,0,.065-.383c.011-.158.017-.349.017-.574s-.006-.415-.017-.571a1.635,1.635,0,0,0-.065-.383.429.429,0,0,0-.141-.218.461.461,0,0,0-.482,0,.422.422,0,0,0-.141.218,1.631,1.631,0,0,0-.066.383q-.017.234-.016.571" transform="translate(-148.835 -60.03)" fill="#455d79"/>
      <path id="Caminho_158" data-name="Caminho 158" d="M235.272,92.08h1.246a.94.94,0,0,1,.655.213.836.836,0,0,1,.234.649,1,1,0,0,1-.136.55.628.628,0,0,1-.421.274v.009a.723.723,0,0,1,.276.087.421.421,0,0,1,.16.183.973.973,0,0,1,.077.3q.021.183.026.45a2.655,2.655,0,0,0,.03.407.257.257,0,0,0,.119.192v.028H236.8a.365.365,0,0,1-.067-.162c-.009-.061-.015-.124-.019-.19l-.018-.641a.526.526,0,0,0-.1-.309.352.352,0,0,0-.3-.113h-.356v1.414h-.674Zm.674,1.461h.281a.551.551,0,0,0,.374-.115.493.493,0,0,0,.131-.386.412.412,0,0,0-.468-.464h-.318Z" transform="translate(-153.696 -60.153)" fill="#455d79"/>
      <path id="Caminho_159" data-name="Caminho 159" d="M243.288,92.08l.815,2.289h.009V92.08h.619v3.343h-.768l-.824-2.341h-.01v2.341h-.618V92.08Z" transform="translate(-158.425 -60.153)" fill="#455d79"/>
      <path id="Caminho_160" data-name="Caminho 160" d="M251.86,92.08v.553h-1.194v.787h1.124v.552h-1.124v.9h1.241v.553h-1.915V92.08Z" transform="translate(-163.312 -60.153)" fill="#455d79"/>
      <path id="Caminho_161" data-name="Caminho 161" d="M257.513,93.085a1.215,1.215,0,0,0-.086-.531.324.324,0,0,0-.316-.166.316.316,0,0,0-.208.068.445.445,0,0,0-.129.22,1.832,1.832,0,0,0-.066.4q-.019.245-.019.6a5.91,5.91,0,0,0,.026.614,1.367,1.367,0,0,0,.08.363.331.331,0,0,0,.136.173.39.39,0,0,0,.19.044.457.457,0,0,0,.166-.03.282.282,0,0,0,.133-.122.779.779,0,0,0,.089-.258,2.35,2.35,0,0,0,.033-.438h.674a3.061,3.061,0,0,1-.042.515,1.2,1.2,0,0,1-.157.428.806.806,0,0,1-.324.293,1.178,1.178,0,0,1-.541.108,1.212,1.212,0,0,1-.6-.129.863.863,0,0,1-.344-.358,1.543,1.543,0,0,1-.154-.55,6.875,6.875,0,0,1,0-1.4,1.543,1.543,0,0,1,.154-.551.865.865,0,0,1,.344-.358,1.212,1.212,0,0,1,.6-.129,1.162,1.162,0,0,1,.569.117.794.794,0,0,1,.311.3,1.026,1.026,0,0,1,.129.388,3.245,3.245,0,0,1,.026.391Z" transform="translate(-167.247 -60.03)" fill="#455d79"/>
      <path id="Caminho_162" data-name="Caminho 162" d="M265.067,92.08v.553h-1.194v.787H265v.552h-1.124v.9h1.241v.553H263.2V92.08Z" transform="translate(-171.94 -60.153)" fill="#455d79"/>
      <path id="Caminho_163" data-name="Caminho 163" d="M269.518,92.08h1.105a1.205,1.205,0,0,1,.567.115.823.823,0,0,1,.335.328,1.47,1.47,0,0,1,.161.513,4.836,4.836,0,0,1,.042.669,4.76,4.76,0,0,1-.054.768,1.472,1.472,0,0,1-.185.534.813.813,0,0,1-.351.313,1.311,1.311,0,0,1-.557.1h-1.063Zm.674,2.847h.3a.58.58,0,0,0,.284-.061.413.413,0,0,0,.173-.2,1.193,1.193,0,0,0,.085-.37c.014-.153.021-.344.021-.572,0-.19-.007-.356-.019-.5a1.268,1.268,0,0,0-.077-.358.444.444,0,0,0-.173-.218.572.572,0,0,0-.307-.072h-.286Z" transform="translate(-176.068 -60.153)" fill="#455d79"/>
      <path id="Caminho_164" data-name="Caminho 164" d="M276.7,93.628a6.4,6.4,0,0,1,.035-.7,1.547,1.547,0,0,1,.154-.551.871.871,0,0,1,.344-.358,1.482,1.482,0,0,1,1.208,0,.87.87,0,0,1,.345.358,1.552,1.552,0,0,1,.154.551,7.018,7.018,0,0,1,0,1.4,1.55,1.55,0,0,1-.154.55.866.866,0,0,1-.345.358,1.479,1.479,0,0,1-1.208,0,.867.867,0,0,1-.344-.358,1.545,1.545,0,0,1-.154-.55,6.421,6.421,0,0,1-.035-.7m.674,0q0,.337.016.574a1.585,1.585,0,0,0,.066.383.427.427,0,0,0,.14.216.466.466,0,0,0,.482,0,.428.428,0,0,0,.141-.216,1.607,1.607,0,0,0,.065-.383q.017-.237.016-.574t-.016-.571a1.636,1.636,0,0,0-.065-.383.427.427,0,0,0-.141-.218.462.462,0,0,0-.482,0,.426.426,0,0,0-.14.218,1.614,1.614,0,0,0-.066.383q-.016.234-.016.571" transform="translate(-180.761 -60.03)" fill="#455d79"/>
      <path id="Caminho_165" data-name="Caminho 165" d="M284.145,92.08h1.245a.938.938,0,0,1,.655.213.834.834,0,0,1,.234.649,1,1,0,0,1-.136.55.627.627,0,0,1-.421.274v.009a.721.721,0,0,1,.276.087.418.418,0,0,1,.159.183.961.961,0,0,1,.077.3q.021.183.026.45a2.671,2.671,0,0,0,.03.407.257.257,0,0,0,.119.192v.028h-.739a.361.361,0,0,1-.067-.162,1.9,1.9,0,0,1-.019-.19l-.018-.641a.527.527,0,0,0-.1-.309.351.351,0,0,0-.3-.113h-.356v1.414h-.674Zm.674,1.461h.281a.551.551,0,0,0,.374-.115.492.492,0,0,0,.131-.386.412.412,0,0,0-.468-.464h-.318Z" transform="translate(-185.624 -60.153)" fill="#455d79"/>
      <path id="Caminho_166" data-name="Caminho 166" d="M149.413,44.51h-4.16v-7.9c0-1.523.027-2.172.192-5.416l.082-1.805h-.137l-.52,1.749c-.93,3.074-1.2,3.92-1.642,5.189L140.3,44.51H136.6l-2.956-8.151c-.492-1.41-.711-2.059-1.7-5.19l-.52-1.72H131.3l.082,1.777c.192,3.215.219,4.062.219,5.387v7.9h-4.16V25.7h6.678l2.463,7.023c.411,1.241.684,2.115,1.752,5.839h.164l.411-1.467c.711-2.567.9-3.244,1.286-4.344L142.6,25.7h6.815Z" transform="translate(-83.25 -16.787)" fill="#1e2d49"/>
      <path id="Caminho_167" data-name="Caminho 167" d="M211.228,25.939a5.113,5.113,0,0,1,3.038,4.2,27.576,27.576,0,0,1,.219,4.682c0,4.259-.192,5.528-.985,6.91a5.359,5.359,0,0,1-3.586,2.369,21.936,21.936,0,0,1-3.941.282c-2.874,0-4.27-.254-5.419-.931a5.136,5.136,0,0,1-2.518-4.005,23.879,23.879,0,0,1-.191-3.836c0-4.908.219-6.515,1.122-7.841a5.543,5.543,0,0,1,3.476-2.2,21.5,21.5,0,0,1,3.941-.282c2.573,0,3.777.17,4.844.649m-8.238,3.723c-.739.677-.848,1.354-.848,5.754,0,3.018.137,3.836.711,4.541.466.564,1.232.7,3.586.7,2.272,0,2.956-.31,3.394-1.495.3-.846.356-1.523.356-4.4,0-3.751-.082-4.259-.739-5.049-.465-.564-1.177-.705-3.366-.705-1.916,0-2.545.141-3.093.649" transform="translate(-129.246 -16.521)" fill="#1e2d49"/>
      <path id="Caminho_168" data-name="Caminho 168" d="M257.154,33.651h7.772v3.582h-7.772V44.51h-4.215V25.7h12.507v3.582h-8.292Z" transform="translate(-165.238 -16.787)" fill="#1e2d49"/>
    </g>
  </g>
</svg>
