<svg xmlns="http://www.w3.org/2000/svg" xmlns:xlink="http://www.w3.org/1999/xlink" width="44" height="44" viewBox="0 0 44 44">
  <defs>
    <clipPath id="clip-path">
      <rect id="Retângulo_166" data-name="Retângulo 166" width="16" height="16" fill="#1e2d49"/>
    </clipPath>
  </defs>
  <g id="Grupo_247" data-name="Grupo 247" transform="translate(-185 -111)">
    <rect id="Retângulo_118" data-name="Retângulo 118" width="44" height="44" rx="10" transform="translate(185 111)" fill="#1e2d49" opacity="0.08"/>
    <g id="Grupo_237" data-name="Grupo 237">
      <rect id="Retângulo_163" data-name="Retângulo 163" width="24" height="24" transform="translate(195 121)" fill="none"/>
      <g id="Grupo_249" data-name="Grupo 249" transform="translate(199 125)">
        <g id="Grupo_248" data-name="Grupo 248" clip-path="url(#clip-path)">
          <path id="Caminho_172" data-name="Caminho 172" d="M8,16a7.722,7.722,0,0,1-5.675-2.325A7.722,7.722,0,0,1,0,8,7.722,7.722,0,0,1,2.325,2.325,7.722,7.722,0,0,1,8,0a7.918,7.918,0,0,1,3.3.713A7.625,7.625,0,0,1,14,2.75V0h2V7H9V5h4.2a5.833,5.833,0,0,0-2.187-2.2A5.934,5.934,0,0,0,8,2,5.785,5.785,0,0,0,3.75,3.75,5.785,5.785,0,0,0,2,8a5.785,5.785,0,0,0,1.75,4.25A5.785,5.785,0,0,0,8,14a5.865,5.865,0,0,0,3.475-1.1A5.811,5.811,0,0,0,13.65,10h2.1a7.9,7.9,0,0,1-2.85,4.325A7.757,7.757,0,0,1,8,16" fill="#1e2d49"/>
        </g>
      </g>
    </g>
  </g>
</svg>
